# xmcd CD database file
#
# Track frame offsets:
#	150
#	15348
#	29160
#	50230
#	66732
#	84115
#	106318
#	119365
#	153997
#	166254
#	179897
#	199359
#	214444
#
# Disc length: 3019 seconds
#
# Revision: 0
# Processed by: cddbd v1.4PL0 Copyright (c) Steve Scherf et al.
# Submitted via: Feurio! 1.61 - http://www.feurio.com
#
DISCID=c30bc90d
DTITLE=B.B. and the Bluesshacks - Feelin' Fine Today
DYEAR=1900
DGENRE=
TTITLE0=B.B. and The Blues Shacks - Nothing Else To Say
TTITLE1=B.B. and The Blues Shacks - Backstage King
TTITLE2=B.B. and The Blues Shacks - The World Keeps Going Round
TTITLE3=B.B. and The Blues Shacks - Feelin' Fine Today
TTITLE4=B.B. and The Blues Shacks - I Don't Want No Woman
TTITLE5=B.B. and The Blues Shacks - She's Got Her Eyes On Me
TTITLE6=B.B. and The Blues Shacks - Alimony Blues
TTITLE7=B.B. and The Blues Shacks - Halsted St. Blues
TTITLE8=B.B. and The Blues Shacks - Get No Credit
TTITLE9=B.B. and The Blues Shacks - Don't Touch My Girl
TTITLE10=B.B. and The Blues Shacks - T-Bone Shuffle
TTITLE11=B.B. and The Blues Shacks - I Need Someone
TTITLE12=B.B. and The Blues Shacks - Baby Don't Come Back
EXTD=
EXTT0=
EXTT1=
EXTT2=
EXTT3=
EXTT4=
EXTT5=
EXTT6=
EXTT7=
EXTT8=
EXTT9=
EXTT10=
EXTT11=
EXTT12=
PLAYORDER=
